<?xml version="1.0" encoding="utf-8"?>
<!-- Generator: Adobe Illustrator 16.0.0, SVG Export Plug-In . SVG Version: 6.00 Build 0)  -->
<!DOCTYPE svg PUBLIC "-//W3C//DTD SVG 1.1//EN" "http://www.w3.org/Graphics/SVG/1.1/DTD/svg11.dtd">
<svg version="1.1" id="Layer_1" xmlns="http://www.w3.org/2000/svg" xmlns:xlink="http://www.w3.org/1999/xlink" x="0px" y="0px"
	 width="311px" height="232px" viewBox="0 0 311 232" enable-background="new 0 0 311 232" xml:space="preserve">
<title>empty cart</title>
<desc>Created with Sketch.</desc>
<g>
	<path fill="#C6CBDB" d="M245.106,79.849V36.808h-61.489c-1.698,0-3.079,1.376-3.079,3.075s1.381,3.076,3.079,3.076h44.838
		l-13.192,13.194c-0.104,0.103-0.154,0.24-0.24,0.355c-0.111,0.15-0.232,0.291-0.31,0.458c-0.034,0.069-0.085,0.121-0.12,0.193
		c-0.051,0.121-0.043,0.253-0.076,0.382c-0.052,0.193-0.104,0.377-0.121,0.579c0,0.069-0.033,0.138-0.033,0.21v21.518H97.53V58.331
		c0-0.073-0.039-0.142-0.039-0.214c-0.018-0.198-0.065-0.382-0.111-0.575c-0.035-0.133-0.035-0.262-0.086-0.386
		c-0.025-0.074-0.082-0.124-0.115-0.189c-0.082-0.167-0.198-0.308-0.31-0.458c-0.085-0.115-0.142-0.253-0.244-0.355L83.43,42.958
		h44.844c1.697,0,3.075-1.377,3.075-3.076s-1.378-3.075-3.075-3.075H66.784v43.041h-3.074v114.555
		c0,8.04,6.541,14.577,14.574,14.577h155.319c8.039,0,14.574-6.537,14.574-14.577V79.849H245.106z M238.956,42.958v36.89h-1.536
		l-15.93-21.231l15.664-15.659H238.956z M220.503,67.548l9.231,12.3h-9.231V67.548z M82.157,79.849l9.222-12.3v12.3H82.157z
		 M72.931,42.958h1.801l15.664,15.659L74.471,79.849h-1.54V42.958z M242.027,194.403c0,4.643-3.783,8.426-8.425,8.426H78.284
		c-4.645,0-8.424-3.783-8.424-8.426V86h172.168V194.403z"/>
	<path fill="#C6CBDB" d="M192.839,104.447c-1.707,0-3.08,1.373-3.08,3.077v18.443c0,18.647-15.166,33.823-33.815,33.823
		c-18.646,0-33.82-15.176-33.82-33.823v-18.443c0-1.704-1.373-3.077-3.076-3.077c-1.699,0-3.072,1.373-3.072,3.077v18.443
		c0,22.038,17.929,39.967,39.967,39.967c22.037,0,39.966-17.929,39.966-39.967v-18.443
		C195.909,105.82,194.537,104.447,192.839,104.447z"/>
	<path fill="#C6CBDB" d="M125.199,107.523c0,1.699,1.372,3.069,3.076,3.069c1.697,0,3.075-1.37,3.075-3.069
		c0-6.787-5.517-12.302-12.302-12.302c-6.781,0-12.297,5.515-12.297,12.302c0,1.699,1.377,3.069,3.076,3.069s3.075-1.37,3.075-3.069
		c0-3.392,2.757-6.151,6.146-6.151C122.44,101.373,125.199,104.131,125.199,107.523z"/>
	<path fill="#C6CBDB" d="M192.839,95.222c-6.786,0-12.301,5.515-12.301,12.302c0,1.699,1.381,3.069,3.079,3.069
		c1.699,0,3.07-1.37,3.07-3.069c0-3.392,2.763-6.151,6.151-6.151s6.149,2.759,6.149,6.151c0,1.699,1.373,3.069,3.072,3.069
		c1.698,0,3.071-1.37,3.071-3.069C205.132,100.736,199.625,95.222,192.839,95.222z"/>
	<path fill="#C6CBDB" d="M151.594,49.104l-19.343,19.35c-1.207,1.205-1.207,3.143,0,4.348c0.595,0.6,1.384,0.901,2.169,0.901
		c0.79,0,1.575-0.301,2.175-0.901l19.349-19.349l19.354,19.349c0.6,0.6,1.381,0.901,2.17,0.901c0.78,0,1.569-0.301,2.17-0.901
		c1.201-1.205,1.201-3.143,0-4.348l-19.344-19.35l19.344-19.344c1.201-1.206,1.201-3.148,0-4.35c-1.2-1.201-3.14-1.201-4.34,0
		L155.943,44.76l-19.349-19.349c-1.201-1.201-3.144-1.201-4.344,0c-1.207,1.201-1.207,3.144,0,4.35L151.594,49.104z"/>
</g>
</svg>
